<svg xmlns="http://www.w3.org/2000/svg" height="512" width="512">
<defs>
<mask id="rmvArr">
    <rect y="0" width="512" height="512" fill="white" x="0"></rect>
    
<path d="M307 34.8c-11.5 5.1-19 16.6-19 29.2v64H176C78.8 128 0 206.8 0 304C0 417.3 81.5 467.9 100.2 478.1c2.5 1.4 5.3 1.9 8.1 1.9c10.9 0 19.7-8.9 19.7-19.7c0-7.5-4.3-14.4-9.8-19.5C108.8 431.9 96 414.4 96 384c0-53 43-96 96-96h96v64c0 12.6 7.4 24.1 19 29.2s25 3 34.4-5.4l160-144c6.7-6.1 10.6-14.7 10.6-23.8s-3.8-17.7-10.6-23.8l-160-144c-9.4-8.5-22.9-10.6-34.4-5.4z" fill="black" fill-rule="evenodd" transform="translate(256 224) scale(0.32) translate(-256 -224) translate(930, -250) rotate(90)"></path></mask><mask id="rmvRct">
    <rect y="0" width="512" height="512" fill="white" x="0"></rect>
    <path fill="black" fill-rule="evenodd" d="M0 96C0 60.7 28.7 32 64 32H448c35.3 0 64 28.7 64 64V416c0 35.3-28.7 64-64 64H64c-35.3 0-64-28.7-64-64V96z" transform="translate(256 224) scale(0.7) translate(-256 -224) translate(182.85714285714286, 208.57142857142858)" style=""></path>
</mask></defs>
   <g mask="url(#rmvArr)">
      <g transform="translate(14, -6) scale(0.90)"><path mask="url(#rmvRct)" fill-rule="evenodd" fill="white" d="M0 96C0 60.7 28.7 32 64 32H448c35.3 0 64 28.7 64 64V416c0 35.3-28.7 64-64 64H64c-35.3 0-64-28.7-64-64V96zM323.8 202.5c-4.5-6.6-11.9-10.5-19.8-10.5s-15.4 3.9-19.8 10.5l-87 127.6L170.7 297c-4.6-5.7-11.5-9-18.7-9s-14.2 3.3-18.7 9l-64 80c-5.8 7.2-6.9 17.1-2.9 25.4s12.4 13.6 21.6 13.6h96 32H424c8.9 0 17.1-4.9 21.2-12.8s3.6-17.4-1.4-24.7l-120-176zM112 192a48 48 0 1 0 0-96 48 48 0 1 0 0 96z"></path><path fill="white" d="M0 96C0 60.7 28.7 32 64 32H448c35.3 0 64 28.7 64 64V416c0 35.3-28.7 64-64 64H64c-35.3 0-64-28.7-64-64V96zM323.8 202.5c-4.5-6.6-11.9-10.5-19.8-10.5s-15.4 3.9-19.8 10.5l-87 127.6L170.7 297c-4.6-5.7-11.5-9-18.7-9s-14.2 3.3-18.7 9l-64 80c-5.8 7.2-6.9 17.1-2.9 25.4s12.4 13.6 21.6 13.6h96 32H424c8.9 0 17.1-4.9 21.2-12.8s3.6-17.4-1.4-24.7l-120-176zM112 192a48 48 0 1 0 0-96 48 48 0 1 0 0 96z" transform="translate(256 224) scale(0.62) translate(-256 -224) translate(206.45161290322582, 235.48387096774195)" fill-rule="evenodd"></path></g>
    


   </g>
</svg>
