<svg xmlns="http://www.w3.org/2000/svg" viewBox="0 0 448 512">
<path d="
  M0  96 c0-17.7 14.3-32 32-32  l96 0 c17.7 0 32 14.3 32 32s-14.3 32-32 32 L32 128 c-17.7 0 -32-14.3 -32-32 z
  M0 208 c0-17.7 14.3-32 32-32 l192 0 c17.7 0 32 14.3 32 32s-14.3 32-32 32 L32 240 c-17.7 0 -32-14.3 -32-32 z
  M0 320 c0-17.7 14.3-32 32-32 l288 0 c17.7 0 32 14.3 32 32s-14.3 32-32 32 L32 352 c-17.7 0 -32-14.3 -32-32 z
  M0 432 c0-17.7 14.3-32 32-32 l384 0 c17.7 0 32 14.3 32 32s-14.3 32-32 32 L32 464 c-17.7 0 -32-14.3 -32-32 z
"/></svg>
