<?xml version="1.0" encoding="UTF-8"?>
<!--Generator: Apple Native CoreSVG 232.5-->
<!DOCTYPE svg
PUBLIC "-//W3C//DTD SVG 1.1//EN"
       "http://www.w3.org/Graphics/SVG/1.1/DTD/svg11.dtd">
<svg version="1.1" xmlns="http://www.w3.org/2000/svg" xmlns:xlink="http://www.w3.org/1999/xlink" width="39.5718" height="32.3905">
 <g>
  <rect height="32.3905" opacity="0" width="39.5718" x="0" y="0"/>
  <path d="M27.1771 4.70932L12.3947 4.70932C12.4396 3.75763 13.0391 3.20953 14.0349 3.20953L25.5369 3.20953C26.5327 3.20953 27.1322 3.75763 27.1771 4.70932Z" fill="#ffffff" fill-opacity="0.85"/>
  <path d="M29.574 8.0583C29.1994 7.9987 28.8021 7.96923 28.3846 7.96923L11.1996 7.96923C10.7775 7.96923 10.3761 7.99906 9.99771 8.05911C10.1232 6.92575 10.8775 6.29555 12.1202 6.29555L27.4516 6.29555C28.694 6.29555 29.4482 6.92545 29.574 8.0583Z" fill="#ffffff" fill-opacity="0.85"/>
  <path d="M32.0584 13.4811L32.0584 17.2919C32.0464 17.29 32.0339 17.29 32.0215 17.29C27.8715 17.29 24.4687 20.7027 24.4687 24.8403C24.4687 26.4363 24.9714 27.9209 25.8296 29.1412L11.1996 29.1412C8.74392 29.1412 7.52584 27.933 7.52584 25.5145L7.52584 13.4811C7.52584 11.0602 8.74392 9.85452 11.1996 9.85452L28.3846 9.85452C30.8279 9.85452 32.0584 11.0777 32.0584 13.4811ZM16.4651 14.2574C15.8533 13.1319 14.8345 12.3559 13.4333 12.3559C11.198 12.3559 9.37024 14.161 9.37024 16.7929C9.37024 19.764 11.8394 22.7011 15.688 25.1872C15.9501 25.3627 16.2618 25.53 16.4651 25.53C16.6739 25.53 16.9796 25.3627 17.2421 25.1872C21.0902 22.7011 23.5599 19.764 23.5599 16.7929C23.5599 14.161 21.7321 12.3559 19.4968 12.3559C18.0956 12.3559 17.0824 13.1263 16.4651 14.2574Z" fill="#ffffff" fill-opacity="0.85"/>
  <path d="M37.9691 24.8403C37.9691 28.092 35.2433 30.7878 32.0215 30.7878C28.7599 30.7878 26.0589 28.1168 26.0589 24.8403C26.0589 21.5787 28.7599 18.8927 32.0215 18.8927C35.283 18.8927 37.9691 21.5761 37.9691 24.8403ZM31.2997 21.8317L31.2997 24.1184L29.0079 24.1184C28.5848 24.1184 28.2885 24.4071 28.2885 24.8403C28.2885 25.2734 28.5848 25.5596 29.0079 25.5596L31.2997 25.5596L31.2997 27.8514C31.2997 28.2795 31.5759 28.5732 32.0215 28.5732C32.4521 28.5732 32.7408 28.2795 32.7408 27.8514L32.7408 25.5596L35.03 25.5596C35.4557 25.5596 35.7369 25.2734 35.7369 24.8403C35.7369 24.4071 35.4557 24.1184 35.03 24.1184L32.7408 24.1184L32.7408 21.8317C32.7408 21.4061 32.4521 21.1098 32.0215 21.1098C31.5759 21.1098 31.2997 21.4061 31.2997 21.8317Z" fill="#ffffff" fill-opacity="0.85"/>
 </g>
</svg>

